<svg preserveAspectRatio="xMidYMid meet" style="display: block;" width="13.3333" height="13.3333" viewBox="0 0 13.3333 13.3333" fill="none" xmlns="http://www.w3.org/2000/svg">
<g id="bell">
<path id="Vector" d="M5 9.44445V10C5 10.442 5.1756 10.866 5.48816 11.1785C5.80072 11.4911 6.22464 11.6667 6.66667 11.6667C7.1087 11.6667 7.53262 11.4911 7.84518 11.1785C8.15774 10.866 8.33333 10.442 8.33333 10V9.44445M5.55556 2.77778C5.55556 2.48309 5.67262 2.20048 5.88099 1.9921C6.08937 1.78373 6.37198 1.66667 6.66667 1.66667C6.96135 1.66667 7.24397 1.78373 7.45234 1.9921C7.66072 2.20048 7.77778 2.48309 7.77778 2.77778C8.41578 3.07946 8.95967 3.54907 9.35114 4.13628C9.74261 4.72349 9.96691 5.40615 10 6.11111V7.77778C10.0418 8.12317 10.1641 8.45392 10.3571 8.7434C10.5501 9.03289 10.8084 9.27301 11.1111 9.44445H2.22222C2.52497 9.27301 2.78323 9.03289 2.97622 8.7434C3.1692 8.45392 3.29153 8.12317 3.33333 7.77778V6.11111C3.36642 5.40615 3.59072 4.72349 3.98219 4.13628C4.37367 3.54907 4.91755 3.07946 5.55556 2.77778Z" stroke="white" stroke-width="0.833333" stroke-linecap="round" stroke-linejoin="round"/>
</g>
</svg>
